<svg xmlns="http://www.w3.org/2000/svg" width="1003" height="240" viewBox="0 0 1003 240" fill="none">
    <g filter="url(#filter0_d_4_3)">
        <path d="M149.336 186H104.408L83.096 97.872L64.28 186H47L72.92 64.08H118.808L138.968 153.36L157.976 64.08H175.64L149.336 186ZM196.483 64.08H277.315L274.243 78.672H235.075L227.01 115.728H259.843L256.771 130.128H223.939L215.107 171.216H254.275L251.395 186H170.562L196.483 64.08ZM341.429 102.48L370.805 64.08H393.845L348.341 118.8L376.949 186H329.525L313.205 147.792L283.637 186H260.597L305.909 130.512L277.685 64.08H325.109L341.429 102.48ZM499.553 78.672H468.641L445.793 186H404.321L427.169 78.672H396.641L400.097 64.08H502.817L499.553 78.672ZM577.444 117.072L624.868 63.888H646.564L603.556 110.544L632.74 186H590.884L573.988 132.432L562.66 186H521.188L547.108 64.08H588.772L577.444 117.072ZM663.92 64.08H744.752L741.68 78.672H702.512L694.448 115.728H727.28L724.208 130.128H691.376L682.544 171.216H721.712L718.832 186H638L663.92 64.08ZM760.483 64.08H841.315L838.243 78.672H799.075L791.01 115.728H823.843L820.771 130.128H787.939L779.107 171.216H818.275L815.395 186H734.562L760.483 64.08ZM892.757 133.392C896.597 133.392 899.797 131.792 902.357 128.592C905.045 125.392 907.221 121.488 908.885 116.88C910.677 112.272 911.957 107.472 912.725 102.48C913.493 97.488 913.877 93.136 913.877 89.424C913.877 85.968 913.301 83.088 912.149 80.784C910.997 78.352 908.501 77.136 904.661 77.136H896.021L883.925 133.392H892.757ZM881.237 145.68L872.597 186H831.125L857.045 64.08H901.397C908.693 64.08 915.349 64.464 921.365 65.232C927.381 66 932.565 67.536 936.917 69.84C941.269 72.144 944.661 75.472 947.093 79.824C949.525 84.048 950.741 89.744 950.741 96.912C950.741 103.568 949.653 109.904 947.477 115.92C945.429 121.808 942.037 126.992 937.301 131.472C932.693 135.824 926.677 139.28 919.253 141.84C911.829 144.4 902.805 145.68 892.181 145.68H881.237Z" fill="#414182"/>
    </g>
    <defs>
        <filter id="filter0_d_4_3" x="37.5" y="63.388" width="922.741" height="141.112" filterUnits="userSpaceOnUse" color-interpolation-filters="sRGB">
            <feFlood flood-opacity="0" result="BackgroundImageFix"/>
            <feColorMatrix in="SourceAlpha" type="matrix" values="0 0 0 0 0 0 0 0 0 0 0 0 0 0 0 0 0 0 127 0" result="hardAlpha"/>
            <feOffset dy="9"/>
            <feGaussianBlur stdDeviation="4.75"/>
            <feComposite in2="hardAlpha" operator="out"/>
            <feColorMatrix type="matrix" values="0 0 0 0 0.147339 0 0 0 0 0.01523 0 0 0 0 0.332292 0 0 0 0.43 0"/>
            <feBlend mode="normal" in2="BackgroundImageFix" result="effect1_dropShadow_4_3"/>
            <feBlend mode="normal" in="SourceGraphic" in2="effect1_dropShadow_4_3" result="shape"/>
        </filter>
    </defs>
</svg>
