<svg viewBox="0 0 640 640" xmlns="http://www.w3.org/2000/svg" xmlns:svg="http://www.w3.org/2000/svg">
  <g id="svg_1">
   <circle cx="320" cy="320" fill="#7857D4" id="svg_2" r="315.5"/>
   <path d="m223.49,225.27c-8.16,2.3 -15.64,6.57 -21.77,12.43c-6.13,5.85 -10.74,13.12 -13.42,21.17l-75.8,227.38l11.94,11.94l121.96,-121.97c-2.43,-5.08 -3.9,-10.71 -3.9,-16.72c0,-21.54 17.46,-39 39,-39c21.54,0 39,17.46 39,39c0,21.54 -17.46,39 -39,39c-6.01,0 -11.64,-1.47 -16.72,-3.9l-121.97,121.96l11.94,11.94l227.38,-75.8c8.05,-2.68 15.32,-7.29 21.17,-13.42c5.86,-6.13 10.12,-13.61 12.43,-21.77l34.77,-123.01l-104,-104l-123.01,34.77zm293.58,-52.51l-48.83,-48.83c-15.24,-15.24 -39.95,-15.24 -55.18,0l-45.95,45.94l104.02,104.02l45.94,-45.95c15.24,-15.23 15.24,-39.93 0,-55.18z" fill="black" id="svg_3"/>
  </g>
</svg>
