<svg width="1024" height="768" viewBox="0 0 1024 768" fill="none" xmlns="http://www.w3.org/2000/svg">
<rect width="1024" height="768" fill="transparent"/>
<circle cx="511.5" cy="383.5" r="315.5" fill="#7857D4"/>
<path d="M414.987 288.768C406.827 291.075 399.354 295.342 393.221 301.198C387.088 307.053 382.479 314.32 379.798 322.365L304 549.75L315.936 561.686L437.899 439.722C435.47 434.636 433.999 429.013 433.999 423.001C433.999 401.462 451.46 384.001 472.999 384.001C494.538 384.001 511.999 401.462 511.999 423.001C511.999 444.54 494.538 462.001 472.999 462.001C466.987 462.001 461.364 460.53 456.278 458.101L334.314 580.064L346.25 592L573.635 516.202C581.68 513.521 588.947 508.912 594.802 502.779C600.658 496.646 604.925 489.173 607.232 481.013L641.998 358.001L537.999 254.002L414.987 288.768ZM708.574 236.265L659.735 187.426C644.501 172.191 619.793 172.191 604.559 187.426L558.612 233.372L662.628 337.388L708.574 291.441C723.809 276.207 723.809 251.507 708.574 236.265Z" fill="black"/>
</svg>
