<svg width="1224" height="240" viewBox="0 0 1224 240" fill="none" xmlns="http://www.w3.org/2000/svg">
    <circle cx="132.5" cy="120.5" r="99.5" fill="#7857D4"/>
    <path d="M102.062 90.6242C99.4889 91.3516 97.1323 92.6974 95.198 94.5441C93.2637 96.3909 91.8104 98.6826 90.9647 101.22L67.0602 172.931L70.8243 176.695L109.288 138.231C108.522 136.627 108.058 134.854 108.058 132.957C108.058 126.165 113.565 120.658 120.358 120.658C127.151 120.658 132.657 126.165 132.657 132.957C132.657 139.75 127.151 145.257 120.358 145.257C118.462 145.257 116.689 144.793 115.084 144.027L76.6205 182.491L80.3846 186.255L152.096 162.351C154.633 161.505 156.924 160.052 158.771 158.117C160.618 156.183 161.964 153.826 162.691 151.253L173.656 112.458L140.857 79.6598L102.062 90.6242ZM194.652 74.0661L179.249 58.6636C174.445 53.8591 166.653 53.8591 161.848 58.6636L147.358 73.1539L180.161 105.958L194.652 91.4673C199.456 86.6628 199.456 78.8731 194.652 74.0661Z" fill="black"/>
    <g filter="url(#filter0_d_3_3)">
        <path d="M385.336 186H340.408L319.096 97.872L300.28 186H283L308.92 64.08H354.808L374.968 153.36L393.976 64.08H411.64L385.336 186ZM432.483 64.08H513.315L510.243 78.672H471.075L463.01 115.728H495.843L492.771 130.128H459.939L451.107 171.216H490.275L487.395 186H406.562L432.483 64.08ZM577.429 102.48L606.805 64.08H629.845L584.341 118.8L612.949 186H565.525L549.205 147.792L519.637 186H496.597L541.909 130.512L513.685 64.08H561.109L577.429 102.48ZM735.553 78.672H704.641L681.793 186H640.321L663.169 78.672H632.641L636.097 64.08H738.817L735.553 78.672ZM813.444 117.072L860.868 63.888H882.564L839.556 110.544L868.74 186H826.884L809.988 132.432L798.66 186H757.188L783.108 64.08H824.772L813.444 117.072ZM899.92 64.08H980.752L977.68 78.672H938.512L930.448 115.728H963.28L960.208 130.128H927.376L918.544 171.216H957.712L954.832 186H874L899.92 64.08ZM996.483 64.08H1077.31L1074.24 78.672H1035.07L1027.01 115.728H1059.84L1056.77 130.128H1023.94L1015.11 171.216H1054.27L1051.39 186H970.562L996.483 64.08ZM1128.76 133.392C1132.6 133.392 1135.8 131.792 1138.36 128.592C1141.05 125.392 1143.22 121.488 1144.89 116.88C1146.68 112.272 1147.96 107.472 1148.73 102.48C1149.49 97.488 1149.88 93.136 1149.88 89.424C1149.88 85.968 1149.3 83.088 1148.15 80.784C1147 78.352 1144.5 77.136 1140.66 77.136H1132.02L1119.93 133.392H1128.76ZM1117.24 145.68L1108.6 186H1067.12L1093.05 64.08H1137.4C1144.69 64.08 1151.35 64.464 1157.37 65.232C1163.38 66 1168.57 67.536 1172.92 69.84C1177.27 72.144 1180.66 75.472 1183.09 79.824C1185.53 84.048 1186.74 89.744 1186.74 96.912C1186.74 103.568 1185.65 109.904 1183.48 115.92C1181.43 121.808 1178.04 126.992 1173.3 131.472C1168.69 135.824 1162.68 139.28 1155.25 141.84C1147.83 144.4 1138.81 145.68 1128.18 145.68H1117.24Z" fill="#414182"/>
    </g>
    <defs>
        <filter id="filter0_d_3_3" x="273.5" y="63.388" width="922.741" height="141.112" filterUnits="userSpaceOnUse" color-interpolation-filters="sRGB">
            <feFlood flood-opacity="0" result="BackgroundImageFix"/>
            <feColorMatrix in="SourceAlpha" type="matrix" values="0 0 0 0 0 0 0 0 0 0 0 0 0 0 0 0 0 0 127 0" result="hardAlpha"/>
            <feOffset dy="9"/>
            <feGaussianBlur stdDeviation="4.75"/>
            <feComposite in2="hardAlpha" operator="out"/>
            <feColorMatrix type="matrix" values="0 0 0 0 0.147339 0 0 0 0 0.01523 0 0 0 0 0.332292 0 0 0 0.43 0"/>
            <feBlend mode="normal" in2="BackgroundImageFix" result="effect1_dropShadow_3_3"/>
            <feBlend mode="normal" in="SourceGraphic" in2="effect1_dropShadow_3_3" result="shape"/>
        </filter>
    </defs>
</svg>
