<svg xmlns="http://www.w3.org/2000/svg" xmlns:xlink="http://www.w3.org/1999/xlink" version="1.1" x="0px" y="0px" viewBox="0 0 100 100" xml:space="preserve"><g><g><path style="" d="M68.422,85.025H34.111c-7.802,0-14.148-6.662-14.148-14.851V30.462    c0-8.189,6.347-14.852,14.148-14.852h25.185c0.55,0,1.076,0.219,1.465,0.607l21.202,21.203c0.388,0.388,0.607,0.915,0.607,1.465    v31.288C82.571,78.362,76.224,85.025,68.422,85.025z M34.111,19.754c-5.516,0-10.005,4.803-10.005,10.708v39.711    c0,5.905,4.488,10.707,10.005,10.707h34.311c5.516,0,10.005-4.802,10.005-10.707v-30.43L58.438,19.754H34.111z" fill="#112"/><path style="" d="M80.499,43.588h-8.817c-7.802,0-14.149-6.662-14.149-14.852V17.991    c0-0.838,0.505-1.594,1.279-1.914c0.779-0.32,1.666-0.142,2.258,0.449l20.895,20.895c0.388,0.388,0.607,0.915,0.607,1.465v2.63    C82.571,42.66,81.643,43.588,80.499,43.588z M61.676,22.992v5.744c0,5.905,4.488,10.708,10.006,10.708h6.446L61.676,22.992z" fill="#112"/></g><path style="" d="M63.877,39.506H33.685c-0.915,0-1.657-0.742-1.657-1.657s0.742-1.657,1.657-1.657h30.192   c0.915,0,1.657,0.742,1.657,1.657S64.792,39.506,63.877,39.506z" fill="#112"/><path style="" d="M68.849,53.118H33.685c-0.915,0-1.657-0.741-1.657-1.657s0.742-1.657,1.657-1.657h35.165   c0.915,0,1.657,0.741,1.657,1.657S69.765,53.118,68.849,53.118z" fill="#112"/><path style="" d="M68.849,66.731H33.685c-0.915,0-1.657-0.741-1.657-1.657s0.742-1.657,1.657-1.657h35.165   c0.915,0,1.657,0.741,1.657,1.657S69.765,66.731,68.849,66.731z" fill="#112"/></g></svg>
